# ProBuilder 4.4.0
# https://unity3d.com/unity/features/worldbuilding/probuilder
# 05/07/2022 20:23:41

mtllib ./WatchFPS.mtl
o WatchFPS

g WatchFPS
v -0.04999995 -0.004999995 0
v -0.04999995 0.005000005 0
v -0.0404508 -0.004999995 0.02938926
v -0.0404508 0.005000005 0.02938926
v -0.0154508 -0.004999995 0.04755283
v -0.0154508 0.005000005 0.04755283
v 0.01545089 -0.004999995 0.04755283
v 0.01545089 0.005000005 0.04755283
v 0.0404509 -0.004999995 0.02938926
v 0.0404509 0.005000005 0.02938926
v 0.05000005 -0.004999995 -4.371139E-09
v 0.05000005 0.005000005 -4.371139E-09
v 0.0404509 -0.004999995 -0.02938926
v 0.0404509 0.005000005 -0.02938926
v 0.0154509 -0.004999995 -0.04755282
v 0.0154509 0.005000005 -0.04755282
v -0.01545081 -0.004999995 -0.04755282
v -0.01545081 0.005000005 -0.04755282
v -0.0404508 -0.004999995 -0.02938927
v -0.0404508 0.005000005 -0.02938927
v 4.842877E-08 -0.004999995 0
v 4.842877E-08 0.005000005 0

vt -0.01545083 -0.004999995
vt -0.01545083 0.005000005
vt 0.01545087 -0.004999995
vt 0.01545087 0.005000005
vt -0.04999995 0
vt 4.842877E-08 0
vt -0.0404508 0.02938926
vt 0.04999995 0
vt 0.0404508 0.02938926
vt -0.0154508 0.04755283
vt 0.0154508 0.04755283
vt 0.05000005 -4.371139E-09
vt -0.05000005 -4.371139E-09
vt 0.0404509 -0.02938926
vt -0.0404509 -0.02938926
vt 0.0154509 -0.04755282
vt -0.0154509 -0.04755282

vn -1 0 -3.133601E-08
vn -0.809017 0 0.5877852
vn -0.309017 0 0.9510565
vn 0.309017 0 0.9510565
vn 0.809017 0 0.5877852
vn 1 0 -6.267203E-08
vn 0.809017 0 -0.5877852
vn 0.3090171 0 -0.9510565
vn -0.309017 0 -0.9510565
vn -0.809017 0 -0.5877852
vn 0 -1 0
vn 0 1 0

usemtl 01_-_Default
f 1/5/11 21/6/11 3/7/11
f 3/7/11 21/6/11 5/10/11
f 5/10/11 21/6/11 7/11/11
f 7/11/11 21/6/11 9/9/11
f 9/9/11 21/6/11 11/12/11
f 11/12/11 21/6/11 13/14/11
f 13/14/11 21/6/11 15/16/11
f 15/16/11 21/6/11 17/17/11
f 17/17/11 21/6/11 19/15/11
f 19/15/11 21/6/11 1/5/11
f 4/9/12 22/6/12 2/8/12
f 6/11/12 22/6/12 4/9/12
f 8/10/12 22/6/12 6/11/12
f 10/7/12 22/6/12 8/10/12
f 12/13/12 22/6/12 10/7/12
f 14/15/12 22/6/12 12/13/12
f 16/17/12 22/6/12 14/15/12
f 18/16/12 22/6/12 16/17/12
f 20/14/12 22/6/12 18/16/12
f 2/8/12 22/6/12 20/14/12
f 4/4/2 2/2/1 1/1/1
f 1/1/1 3/3/2 4/4/2
f 6/4/3 4/2/2 3/1/2
f 3/1/2 5/3/3 6/4/3
f 8/4/4 6/2/3 5/1/3
f 5/1/3 7/3/4 8/4/4
f 10/4/5 8/2/4 7/1/4
f 7/1/4 9/3/5 10/4/5
f 12/4/6 10/2/5 9/1/5
f 9/1/5 11/3/6 12/4/6
f 14/4/7 12/2/6 11/1/6
f 11/1/6 13/3/7 14/4/7
f 16/4/8 14/2/7 13/1/7
f 13/1/7 15/3/8 16/4/8
f 18/4/9 16/2/8 15/1/8
f 15/1/8 17/3/9 18/4/9
f 20/4/10 18/2/9 17/1/9
f 17/1/9 19/3/10 20/4/10
f 2/4/1 20/2/10 19/1/10
f 19/1/10 1/3/1 2/4/1

